<?xml version="1.0" encoding="utf-8"?>
<!-- Generator: Adobe Illustrator 19.1.0, SVG Export Plug-In . SVG Version: 6.00 Build 0)  -->
<svg version="1.1" id="Layer_1" xmlns="http://www.w3.org/2000/svg" xmlns:xlink="http://www.w3.org/1999/xlink" x="0px" y="0px"
	 viewBox="0 0 500 500" style="enable-background:new 0 0 500 500;" xml:space="preserve">
<style type="text/css">
	.st0{opacity:0.11;fill:#FFFFFF;}
	.st1{fill:#CABA9F;}
	.st2{fill:#853429;}
	.st3{fill:#E63D24;}
	.st4{fill:#EB6433;}
	.st5{fill:#FFFFFF;}
</style>
<circle class="st0" cx="249.5" cy="264.2" r="146.5"/>
<polygon class="st1" points="204,413.2 91.2,290 408,290 292.3,413.2 249.4,432.3 "/>
<polygon class="st2" points="204,396.3 108.9,133.7 86,110.8 100.8,111.1 91.2,84.6 408,84.6 398.1,111.4 412,110.8 389,135.9 
	292.3,396.3 249.4,452.9 "/>
<path class="st3" d="M167.5,322.6L114.2,53l46.3,9c0,0,46.5-17,86.5-17s87.5,17,87.5,17l50.5-9l-55.8,269.6l-79.7,97.1L167.5,322.6z
	"/>
<polygon class="st4" points="249.6,396.3 308.6,320.9 360.3,84.6 249.6,84.6 "/>
<path class="st5" d="M232.4,180.5c0,16-13,29-29,29s-29-13-29-29s13-29,29-29C219.4,151.6,232.4,164.6,232.4,180.5z"/>
<path class="st5" d="M318.3,180.5c0,16-13,29-29,29s-29-13-29-29s13-29,29-29C305.3,151.6,318.3,164.6,318.3,180.5z"/>
<circle class="st5" cx="249.6" cy="105.2" r="15.8"/>
</svg>
